<?xml version="1.0" encoding="utf-8"?>
<!-- Generator: Adobe Illustrator 21.0.0, SVG Export Plug-In . SVG Version: 6.00 Build 0)  -->
<svg version="1.1" id="Ebene_1" xmlns="http://www.w3.org/2000/svg" xmlns:xlink="http://www.w3.org/1999/xlink" x="0px" y="0px"
	 width="194.4px" height="38.2px" viewBox="0 0 194.4 38.2" style="enable-background:new 0 0 194.4 38.2;" xml:space="preserve">
<g>
	<path d="M6,15.7h14V3h4.9v32.4H20V20.3H6v15.1H1.1V3H6V15.7z"/>
	<path d="M51.7,27.6H37.8l-3.6,7.9h-5.3L45,1l15.5,34.5h-5.4L51.7,27.6z M49.7,23l-4.8-11l-5,11H49.7z"/>
	<path d="M64.5,35.5V0.8l23.6,24.7V3H93v34.4L69.4,12.8v22.7H64.5z"/>
	<path d="M100.8,35.5V0.8l23.6,24.7V3h4.9v34.4l-23.6-24.7v22.7H100.8z"/>
	<path d="M156.4,27.6h-13.9l-3.6,7.9h-5.3l16-34.5l15.5,34.5h-5.4L156.4,27.6z M154.4,23l-4.8-11l-5,11H154.4z"/>
	<path d="M174.1,15.7h14V3h4.9v32.4h-4.9V20.3h-14v15.1h-4.9V3h4.9V15.7z"/>
</g>
</svg>
